<svg width="20" height="20" viewBox="0 0 20 20" fill="none" xmlns="http://www.w3.org/2000/svg">
<g clip-path="url(#clip0)">
<path d="M4.98692 1.45346C4.80098 1.29463 4.52651 1.29678 4.34307 1.45846L3.00167 2.65888V2.50157C3.00167 2.3175 2.85248 2.16832 2.66842 2.16832C2.48435 2.16832 2.33516 2.3175 2.33516 2.50157V3.25575L1.77958 3.75299C1.64449 3.87621 1.6339 4.08526 1.75587 4.22152C1.87784 4.35778 2.08678 4.37028 2.22413 4.24957L4.66796 2.06201L7.11179 4.24957C7.20029 4.33029 7.32534 4.35732 7.43926 4.32033C7.55322 4.28335 7.63852 4.18805 7.66273 4.0707C7.68695 3.95338 7.64633 3.83207 7.55635 3.75299L4.98692 1.45346Z" fill="#4299E1"/>
<path d="M6.66738 4.66779C6.48332 4.66779 6.33413 4.81697 6.33413 5.00104V7.33388H3.00146V5.00104C3.00146 4.81697 2.85228 4.66779 2.66821 4.66779C2.48415 4.66779 2.33496 4.81697 2.33496 5.00104V7.54551C2.33824 7.79995 2.5471 8.00358 2.80154 8.00042H6.53409C6.78869 8.003 6.99735 7.79909 7.00067 7.5445V5.00104C7.00063 4.81697 6.85141 4.66779 6.66738 4.66779Z" fill="#4299E1"/>
<path d="M4.6678 8.66693C3.37939 8.66693 2.33496 9.7114 2.33496 10.9998C2.33496 12.2881 3.37943 13.3326 4.6678 13.3326C5.95616 13.3326 7.00063 12.2881 7.00063 10.9998C6.99915 9.71199 5.95558 8.66838 4.6678 8.66693ZM3.00146 10.9998C3.00248 10.2082 3.5592 9.52621 4.33451 9.36679V10.8108L3.10144 11.5503C3.03689 11.3739 3.00306 11.1877 3.00146 10.9998ZM3.44489 12.1218L4.61613 11.419L5.58526 12.3882C4.90443 12.8424 3.9936 12.729 3.44489 12.1218ZM6.05649 11.9169L5.00105 10.8618V9.36679C5.54359 9.47672 5.99592 9.84938 6.20763 10.3609C6.41931 10.8724 6.36268 11.4557 6.05649 11.9169Z" fill="#4299E1"/>
<path d="M17.9979 6.00082V4.86004C17.9977 4.56986 17.7625 4.33468 17.4723 4.33448H16.5238C16.2336 4.33468 15.9985 4.56986 15.9983 4.86004V6.00082H15.3317V3.91125C15.3314 3.593 15.0735 3.33508 14.7552 3.33469H13.9087C13.5904 3.33508 13.3325 3.593 13.3321 3.91125V6.00082H12.6656V2.3349C12.6656 1.96677 12.3672 1.66836 11.9991 1.66836H11.3326C10.9644 1.66836 10.666 1.96677 10.666 2.3349V6.00082H10.3328C10.1487 6.00082 9.99951 5.85159 9.99951 5.66757V1.6684C9.99951 1.48433 9.85028 1.33514 9.66626 1.33514C9.48223 1.33514 9.33301 1.48433 9.33301 1.6684V5.66757C9.33301 6.21972 9.78061 6.66736 10.3328 6.66736H17.9979C18.182 6.66736 18.3311 6.51817 18.3311 6.33411C18.3311 6.15005 18.1819 6.00082 17.9979 6.00082ZM11.9991 6.00082H11.3326V2.3349H11.9991V6.00082ZM14.6652 6.00082H13.9987V4.00123H14.6652V6.00082ZM17.3313 6.00082H16.6648V5.00103H17.3314V6.00082H17.3313Z" fill="#4299E1"/>
<path d="M17.9979 12.6662H10.3328C10.1487 12.6662 9.99951 12.517 9.99951 12.3329V11.8044L11.0969 10.7069C11.2286 10.5805 11.4365 10.5805 11.5682 10.7069L11.9588 11.0975C12.3492 11.4878 12.9821 11.4878 13.3724 11.0975L14.7628 9.70713C14.8945 9.58075 15.1024 9.58075 15.2341 9.70713L15.6246 10.0981C16.0155 10.4873 16.6475 10.4873 17.0383 10.0981L18.2334 8.90296C18.3597 8.7722 18.3579 8.56432 18.2294 8.43579C18.1008 8.30722 17.893 8.30542 17.7622 8.43173L16.5671 9.62648C16.437 9.75657 16.226 9.75657 16.0959 9.62648L15.7053 9.2359C15.3097 8.85832 14.6872 8.85832 14.2916 9.2359L12.9012 10.6263C12.7711 10.7564 12.5601 10.7564 12.43 10.6263L12.0398 10.2357C11.6441 9.85807 11.0214 9.85807 10.6257 10.2357L9.99951 10.8619V8.33374C9.99951 8.14968 9.85028 8.00049 9.66626 8.00049C9.48223 8.00049 9.33301 8.14971 9.33301 8.33374V12.3329C9.33301 12.8851 9.78061 13.3327 10.3328 13.3327H17.9979C18.182 13.3327 18.3311 13.1835 18.3311 12.9995C18.3311 12.8154 18.1819 12.6662 17.9979 12.6662Z" fill="#4299E1"/>
<path d="M19.9979 15.4835V1.85001C20.0443 0.880916 19.3003 0.0558531 18.3316 0.0020752H1.6684C0.699696 0.0558922 -0.0442903 0.880955 0.00206732 1.85001V15.4835C-0.0444465 16.4527 0.69954 17.278 1.6684 17.3318H7.00062V17.9983H5.66757C4.93136 17.9983 4.33453 18.5952 4.33453 19.3314V19.6646C4.33453 19.8487 4.48372 19.9979 4.66778 19.9979H15.3323C15.5163 19.9979 15.6655 19.8487 15.6655 19.6646V19.3314C15.6655 18.5952 15.0687 17.9983 14.3325 17.9983H12.9994V17.3318H18.3316C19.3005 17.278 20.0444 16.4527 19.9979 15.4835ZM14.3324 18.6649C14.7005 18.6649 14.999 18.9633 14.999 19.3314H5.00103C5.00103 18.9633 5.29945 18.6649 5.66757 18.6649H14.3324ZM7.66716 17.9983V17.3318H12.3329V17.9983H7.66716ZM18.3316 16.6653H1.6684C1.06849 16.6102 0.62354 16.0843 0.668609 15.4836V14.6657H19.3314V15.4836C19.3765 16.0843 18.9315 16.6102 18.3316 16.6653ZM19.3314 1.85001V13.9992H0.668609V1.85001C0.62354 1.24932 1.06853 0.723488 1.6684 0.668578H18.3316C18.9315 0.723488 19.3765 1.24932 19.3314 1.85001Z" fill="#4299E1"/>
</g>
<defs>
<clipPath id="clip0">
<rect width="20" height="20" fill="white"/>
</clipPath>
</defs>
</svg>
