<svg width="20" height="20" viewBox="0 0 20 20" fill="none" xmlns="http://www.w3.org/2000/svg">
<path d="M1.89228 16H2.00039L7.21659 14.8648C7.31819 14.8479 7.41234 14.8008 7.48684 14.7297L16.3246 5.89194C16.9702 5.24773 17.3304 4.37151 17.3246 3.45954C17.3258 2.54049 16.9668 1.65759 16.3246 1.00009C15.6804 0.354488 14.8042 -0.00571524 13.8922 0.000130364C12.9744 -0.00799141 12.094 0.363696 11.4598 1.02715L2.649 9.86488C2.5713 9.92742 2.51465 10.0123 2.48682 10.1081L1.35174 15.3243C1.32075 15.5116 1.38097 15.7024 1.51392 15.8378C1.61371 15.9397 1.74971 15.998 1.89228 16ZM13.8922 1.08121C15.1908 1.0811 16.2436 2.13378 16.2437 3.43238C16.2437 3.44143 16.2436 3.45049 16.2435 3.45954C16.2524 4.07819 16.0083 4.67367 15.5678 5.10816L12.2436 1.75681C12.6815 1.3216 13.2747 1.07846 13.8922 1.08121ZM11.4868 2.54064L14.8111 5.86493L7.10842 13.5405L3.78413 10.2432L11.4868 2.54064ZM3.35171 11.3244L6.02735 14L2.59494 14.7568L3.35171 11.3244Z" fill="white"/>
<path d="M19.0543 18.9189H0.946299C0.64776 18.9189 0.405762 19.1609 0.405762 19.4594C0.405762 19.7579 0.64776 19.9999 0.946299 19.9999H19.0543C19.3528 19.9999 19.5948 19.7579 19.5948 19.4594C19.5948 19.1609 19.3528 18.9189 19.0543 18.9189Z" fill="white"/>
</svg>
