<svg width="15" height="21" viewBox="0 0 15 21" fill="none" xmlns="http://www.w3.org/2000/svg">
<path d="M14.9969 3.75C14.9977 3.66004 14.9629 3.57341 14.9001 3.50898L11.491 0.0998864C11.4269 0.0366477 11.34 0.00178977 11.25 0.00306818V0H1.02273C0.457884 0 0 0.457884 0 1.02273V19.4318C0 19.9967 0.457884 20.4545 1.02273 20.4545H13.9773C14.5421 20.4545 15 19.9967 15 19.4318V3.75H14.9969ZM11.5909 1.16386L13.8361 3.40909H11.9318C11.7436 3.40909 11.5909 3.25645 11.5909 3.06818V1.16386ZM14.3182 19.4318C14.3182 19.6201 14.1655 19.7727 13.9773 19.7727H1.02273C0.83446 19.7727 0.681818 19.6201 0.681818 19.4318V1.02273C0.681818 0.83446 0.83446 0.681818 1.02273 0.681818H10.9091V3.06818C10.9091 3.63303 11.367 4.09091 11.9318 4.09091H14.3182V19.4318Z" fill="white"/>
<path d="M1.39066 17.494C1.21725 17.494 1.07666 17.6346 1.07666 17.808V19.064C1.07666 19.2374 1.21725 19.378 1.39066 19.378H2.64664C2.82004 19.378 2.96063 19.2374 2.96063 19.064C2.96063 18.8906 2.82004 18.75 2.64664 18.75H2.33264L1.70465 18.122V17.808C1.70465 17.6346 1.56406 17.494 1.39066 17.494Z" fill="white"/>
<path d="M8 6V14M8 14L10 11M8 14L6 11" stroke="white" stroke-linecap="round" stroke-linejoin="round"/>
</svg>
