<svg width="40" height="40" viewBox="0 0 40 40" fill="none" xmlns="http://www.w3.org/2000/svg">
<path d="M34.1422 25.8578C31.9638 23.6795 29.371 22.067 26.5421 21.0908C29.572 19.004 31.5625 15.5116 31.5625 11.5625C31.5625 5.18695 26.3755 0 20 0C13.6245 0 8.4375 5.18695 8.4375 11.5625C8.4375 15.5116 10.428 19.004 13.458 21.0908C10.6291 22.067 8.03625 23.6795 5.85789 25.8578C2.08039 29.6354 0 34.6578 0 40H3.125C3.125 30.6951 10.6951 23.125 20 23.125C29.3049 23.125 36.875 30.6951 36.875 40H40C40 34.6578 37.9196 29.6354 34.1422 25.8578ZM20 20C15.3476 20 11.5625 16.215 11.5625 11.5625C11.5625 6.91 15.3476 3.125 20 3.125C24.6524 3.125 28.4375 6.91 28.4375 11.5625C28.4375 16.215 24.6524 20 20 20Z" fill="#C4C4C4"/>
</svg>
