<svg width="20" height="20" viewBox="0 0 20 20" fill="none" xmlns="http://www.w3.org/2000/svg">
<g clip-path="url(#clip0)">
<path d="M14.8312 5.36133H5.95633C5.16048 5.36133 4.52642 6.03218 4.57161 6.82699L5.21458 18.1358C5.27399 19.1812 6.14075 20 7.18777 20H13.5997C14.6467 20 15.5134 19.1812 15.5729 18.1358L16.2159 6.82699C16.2611 6.03238 15.6273 5.36133 14.8312 5.36133V5.36133ZM15.4359 6.78269L14.7929 18.0915C14.757 18.7237 14.2329 19.2188 13.5997 19.2188H7.18781C6.55465 19.2188 6.03055 18.7236 5.99461 18.0915L5.35165 6.78269C5.33196 6.43621 5.60661 6.14257 5.95637 6.14257H14.8312C15.179 6.14257 15.4557 6.43418 15.4359 6.78269Z" fill="white"/>
<path d="M16.2091 2.69006L16.0949 2.02112C15.9752 1.31968 15.3106 0.848547 14.6089 0.96839L11.7661 1.45358L11.6522 0.786594C11.5644 0.271908 11.0767 -0.0743403 10.5611 0.0136672L8.35545 0.39015C7.84045 0.477962 7.49456 0.966007 7.58249 1.4812L7.69635 2.14823L4.85359 2.63342C4.15203 2.75315 3.6811 3.41783 3.80082 4.11951L3.915 4.78845C3.95141 5.00162 4.15383 5.14404 4.36578 5.10779L15.8897 3.14084C16.1025 3.10455 16.2454 2.90272 16.2091 2.69006V2.69006ZM8.35268 1.34972C8.33744 1.26042 8.39744 1.1755 8.48694 1.16023C8.71572 1.12116 10.4163 0.83093 10.6927 0.783742C10.7821 0.76843 10.8669 0.828586 10.8822 0.917999L10.996 1.58499C10.7372 1.62917 8.71178 1.97487 8.46655 2.01675L8.35268 1.34972ZM4.61945 4.27193L4.57101 3.98803C4.5239 3.71209 4.7091 3.45065 4.98511 3.4035C15.4456 1.61811 14.7595 1.73112 14.8267 1.73112C15.0664 1.73112 15.2823 1.90343 15.3249 2.15256L15.3733 2.43647L4.61945 4.27193Z" fill="white"/>
<path d="M10.3936 6.84442C9.78217 6.84442 9.28467 7.34192 9.28467 7.95344V8.51574C9.28467 8.73145 9.45955 8.90637 9.67529 8.90637C9.89103 8.90637 10.0659 8.73145 10.0659 8.51574V7.95344C10.0659 7.7727 10.2129 7.62567 10.3936 7.62567C10.5744 7.62567 10.7214 7.7727 10.7214 7.95344V17.269C10.7214 17.4497 10.5744 17.5967 10.3936 17.5967C10.2129 17.5967 10.0659 17.4497 10.0659 17.269V11.6407C10.0659 11.425 9.89099 11.2501 9.67529 11.2501C9.45959 11.2501 9.28467 11.425 9.28467 11.6407V17.269C9.28467 17.8804 9.78217 18.3779 10.3936 18.3779C11.0051 18.3779 11.5027 17.8805 11.5027 17.269V7.95344C11.5026 7.34192 11.0051 6.84442 10.3936 6.84442V6.84442Z" fill="white"/>
<path d="M8.23145 7.89932C8.19763 7.2871 7.6738 6.8187 7.06302 6.85323C6.45107 6.88694 5.98307 7.40952 6.01686 8.02163L6.53037 17.323C6.58478 18.3083 7.80825 18.7339 8.46388 18.0016C8.66149 17.7809 8.7613 17.4965 8.74497 17.2007L8.23145 7.89932ZM7.65579 17.5891C7.47579 17.5976 7.32044 17.4604 7.31048 17.2799L6.79697 7.97858C6.78697 7.79772 6.92521 7.64331 7.10615 7.63327C7.11236 7.63292 7.11849 7.63276 7.12466 7.63276C7.29701 7.63276 7.44177 7.76741 7.45146 7.94241L7.96501 17.2438C7.97493 17.4246 7.83673 17.5791 7.65579 17.5891V17.5891Z" fill="white"/>
<path d="M13.7237 6.85318C13.1126 6.81975 12.589 7.28869 12.5553 7.89931L12.0418 17.2007C12.0254 17.4964 12.1253 17.7809 12.3228 18.0015C12.9791 18.7347 14.2021 18.3051 14.2563 17.3229L14.7698 8.02158C14.8037 7.40959 14.3357 6.88689 13.7237 6.85318V6.85318ZM13.9898 7.97849L13.4763 17.2798C13.4663 17.4603 13.3103 17.5972 13.131 17.589C12.9501 17.579 12.8118 17.4246 12.8218 17.2437L13.3353 7.94236C13.345 7.76802 13.4898 7.63267 13.6623 7.63267C13.8507 7.63271 14.0002 7.79041 13.9898 7.97849Z" fill="white"/>
<path d="M9.67529 10.4698C9.89104 10.4698 10.0659 10.2949 10.0659 10.0792V10.0782C10.0659 9.86252 9.89104 9.68811 9.67529 9.68811C9.45955 9.68811 9.28467 9.8635 9.28467 10.0792C9.28467 10.295 9.45959 10.4698 9.67529 10.4698V10.4698Z" fill="white"/>
</g>
<defs>
<clipPath id="clip0">
<rect width="20" height="20" fill="white"/>
</clipPath>
</defs>
</svg>
